<svg width="52" height="52" fill="none" xmlns="http://www.w3.org/2000/svg"><circle cx="26" cy="26" r="26" fill="#EC1119"/><path d="M36 26a7.951 7.951 0 01-2.286 5.599 1 1 0 01-1.428-1.4 6 6 0 000-8.397 1 1 0 011.428-1.4A7.95 7.95 0 0136 26zm-.316-9.73a1 1 0 10-1.368 1.46 11.126 11.126 0 010 16.541 1 1 0 101.368 1.459 13.124 13.124 0 000-19.46zM30 15.92v20.16a2.012 2.012 0 01-3.147 1.638L18.686 32H15a3 3 0 01-3-3v-6a3 3 0 013-3h3.685l8.168-5.718A2.012 2.012 0 0130 15.92zM18 22h-3a1 1 0 00-1 1v6a1 1 0 001 1h3v-8zm10.006 14.082L28 15.921l-8 5.6v8.959l8 5.6.006.002z" fill="#fff"/></svg>